# This file uses centimeters as units for non-parametric coordinates.

mtllib Box.mtl
g default
v -11.899984 0.000000 11.899984
v 11.899984 0.000000 11.899984
v -11.899984 14.293047 11.899984
v 11.899984 14.293047 11.899984
v -11.899984 14.293047 -11.899984
v 11.899984 14.293047 -11.899984
v -11.899984 0.000000 -11.899984
v 11.899984 0.000000 -11.899984
vt 0.776982 0.783848
vt 0.776982 0.280886
vt 0.359924 0.774736
vt 0.466021 0.719114
vt 0.776982 0.216152
vt 0.048963 0.463775
vt 0.359924 0.359924
vt 0.466021 0.029405
vt 0.359924 0.048963
vt 0.048963 0.048963
vt 0.776982 0.532367
vt 0.776982 0.719114
vt 0.466021 0.783848
vt 0.466021 0.970595
vt 0.466021 0.532367
vt 0.776982 0.467633
vt 0.048963 0.774736
vt 0.466021 0.280886
vt 0.466021 0.467633
vt 0.776982 0.970595
vt 0.776982 0.029405
vt 0.048963 0.359924
vt 0.359924 0.463775
vt 0.466021 0.216152
vn 0.000000 0.000000 1.000000
vn 0.000000 0.000000 1.000000
vn 0.000000 0.000000 1.000000
vn 0.000000 0.000000 1.000000
vn 0.000000 1.000000 0.000000
vn 0.000000 1.000000 0.000000
vn 0.000000 1.000000 0.000000
vn 0.000000 1.000000 0.000000
vn 0.000000 0.000000 -1.000000
vn 0.000000 0.000000 -1.000000
vn 0.000000 0.000000 -1.000000
vn 0.000000 0.000000 -1.000000
vn 0.000000 -1.000000 0.000000
vn 0.000000 -1.000000 0.000000
vn 0.000000 -1.000000 0.000000
vn 0.000000 -1.000000 0.000000
vn 1.000000 0.000000 0.000000
vn 1.000000 0.000000 0.000000
vn 1.000000 0.000000 0.000000
vn 1.000000 0.000000 0.000000
vn -1.000000 0.000000 0.000000
vn -1.000000 0.000000 0.000000
vn -1.000000 0.000000 0.000000
vn -1.000000 0.000000 0.000000
s off
g Box
usemtl Box_Mat
f 1/18/1 2/2/2 4/16/3 3/19/4
f 3/3/5 4/17/6 6/6/7 5/23/8
f 5/5/9 6/24/10 8/8/11 7/21/12
f 7/7/13 8/22/14 2/10/15 1/9/16
f 2/15/17 8/11/18 6/12/19 4/4/20
f 7/13/21 1/1/22 3/20/23 5/14/24
