# This file uses centimeters as units for non-parametric coordinates.

mtllib GrindRailStraight.mtl
g default
v -34.610852 0.000000 6.959375
v 34.610850 0.000000 6.959375
v -29.091009 3.895851 3.208148
v 29.091006 3.895851 3.208148
v -29.091009 3.895851 -3.208148
v 29.091006 3.895851 -3.208148
v -34.610852 0.000000 -6.959376
v 34.610850 0.000000 -6.959376
v -15.484960 3.817979 0.427312
v -14.108933 3.817979 0.427312
v -15.484960 9.647739 0.427312
v -14.108933 9.647739 0.427312
v -15.484960 9.647739 -0.427311
v -14.108933 9.647739 -0.427311
v -15.484960 3.817979 -0.427311
v -14.108933 3.817979 -0.427311
v -25.685119 3.817979 0.427312
v -24.309092 3.817979 0.427312
v -25.685119 9.647739 0.427312
v -24.309092 9.647739 0.427312
v -25.685119 9.647739 -0.427311
v -24.309092 9.647739 -0.427311
v -25.685119 3.817979 -0.427311
v -24.309092 3.817979 -0.427311
v 4.577270 3.817979 0.427312
v 5.953298 3.817979 0.427312
v 4.577270 9.647739 0.427312
v 5.953298 9.647739 0.427312
v 4.577270 9.647739 -0.427311
v 5.953298 9.647739 -0.427311
v 4.577270 3.817979 -0.427311
v 5.953298 3.817979 -0.427311
v 14.608382 3.817979 0.427312
v 15.984410 3.817979 0.427312
v 14.608382 9.647739 0.427312
v 15.984410 9.647739 0.427312
v 14.608382 9.647739 -0.427311
v 15.984410 9.647739 -0.427311
v 14.608382 3.817979 -0.427311
v 15.984410 3.817979 -0.427311
v -5.453845 3.817979 0.427312
v -4.077818 3.817979 0.427312
v -5.453845 9.647739 0.427312
v -4.077818 9.647739 0.427312
v -5.453845 9.647739 -0.427311
v -4.077818 9.647739 -0.427311
v -5.453845 3.817979 -0.427311
v -4.077818 3.817979 -0.427311
v 24.639499 3.817979 0.427312
v 26.015525 3.817979 0.427312
v 24.639499 9.647739 0.427312
v 26.015525 9.647739 0.427312
v 24.639499 9.647739 -0.427311
v 26.015525 9.647739 -0.427311
v 24.639499 3.817979 -0.427311
v 26.015525 3.817979 -0.427311
v -29.091009 8.499528 1.379725
v 29.585162 8.499528 1.379725
v -29.091009 9.842756 1.379725
v 29.585162 9.842756 1.379725
v -29.091009 9.842756 -1.379724
v 29.585162 9.842756 -1.379724
v -29.091009 8.499528 -1.379724
v 29.585162 8.499528 -1.379724
vt 0.587699 0.861199
vt 1.000000 0.597381
vt 0.004820 0.718175
vt 0.080016 0.971699
vt 0.079742 0.477360
vt 0.835697 0.851293
vt 0.009558 0.002792
vt 1.000000 0.590867
vt 0.009558 0.289328
vt 0.990442 0.289328
vt 0.289328 0.859671
vt 0.212104 0.971699
vt 0.308980 0.861199
vt 0.384098 0.970170
vt 0.940591 0.967051
vt 0.971862 0.737281
vt 0.719217 0.900212
vt 0.000000 0.665498
vt 0.019879 0.683434
vt 0.977074 0.430601
vt 0.854721 0.450480
vt 0.953744 0.491700
vt 0.973622 0.509637
vt 0.953744 0.509637
vt 0.841569 0.918149
vt 0.719217 0.918149
vt 0.940591 0.949115
vt 0.818239 0.949115
vt 0.711276 0.900967
vt 0.971862 0.816460
vt 0.687946 0.949115
vt 0.964167 0.664458
vt 0.984046 0.682394
vt 0.971862 0.770189
vt 0.849509 0.790067
vt 0.010423 0.501812
vt 0.030302 0.519748
vt 0.010423 0.519748
vt 0.810299 0.967051
vt 0.687946 0.967051
vt 0.711276 0.883031
vt 0.588924 0.883031
vt 0.956227 0.942600
vt 0.977074 0.371300
vt 0.557653 0.931933
vt 0.002824 0.526263
vt 0.022703 0.544199
vt 0.977073 0.298635
vt 0.854721 0.318514
vt 0.979802 0.491700
vt 0.999681 0.509637
vt 0.979802 0.509637
vt 0.680006 0.949869
vt 0.557653 0.949869
vt 0.956227 0.924664
vt 0.833874 0.924664
vt 0.695641 0.925418
vt 0.977073 0.397693
vt 0.849509 0.900213
vt 0.979802 0.640006
vt 0.999681 0.657943
vt 0.977074 0.404208
vt 0.854721 0.424087
vt 0.031270 0.477361
vt 0.051149 0.495297
vt 0.031270 0.495297
vt 0.971862 0.918149
vt 0.849509 0.918149
vt 0.695641 0.907482
vt 0.573289 0.907482
vt 0.734852 0.875761
vt 0.971862 0.763674
vt 0.703581 0.924664
vt 0.000000 0.641046
vt 0.019879 0.658983
vt 0.997920 0.325028
vt 0.875568 0.344907
vt 0.005212 0.477361
vt 0.025090 0.495297
vt 0.005212 0.495297
vt 0.825934 0.942600
vt 0.703581 0.942600
vt 0.734852 0.893698
vt 0.857204 0.893698
vt 0.987497 0.893698
vt 0.971862 0.869247
vt 0.604559 0.858580
vt 0.026059 0.678139
vt 0.045937 0.696075
vt 0.971862 0.822975
vt 0.849509 0.842854
vt 0.979802 0.516151
vt 0.999681 0.534088
vt 0.979802 0.534088
vt 0.726911 0.876516
vt 0.604559 0.876516
vt 0.987497 0.875761
vt 0.865145 0.875761
vt 0.996023 0.456994
vt 0.831452 0.351233
vt 0.265797 0.938973
vt 0.016204 0.385848
vt 0.831452 0.441547
vt 0.012963 0.446032
vt 0.834693 0.473361
vt 0.016204 0.295533
vt 0.009722 0.354347
vt 0.323711 0.910782
vt 0.323711 0.938973
vt 0.938109 0.456994
vt 0.938109 0.485186
vt 0.831452 0.295533
vt 0.265797 0.910782
vt 0.012963 0.473361
vt 0.837934 0.381891
vt 0.996023 0.485186
vt 0.999681 0.516151
vt 0.726911 0.858580
vt 0.849509 0.822975
vt 0.971862 0.849368
vt 0.971862 0.842854
vt 0.026059 0.696075
vt 0.849509 0.869247
vt 0.045937 0.678139
vt 0.849509 0.849368
vt 0.865145 0.893698
vt 0.025090 0.477360
vt 0.825934 0.924664
vt 0.875568 0.325028
vt 0.971862 0.743796
vt 0.997920 0.344907
vt 0.000000 0.658983
vt 0.849509 0.763674
vt 0.019879 0.641046
vt 0.849509 0.743796
vt 0.857204 0.875761
vt 0.051149 0.477360
vt 0.971862 0.900213
vt 0.854721 0.404208
vt 0.977073 0.377815
vt 0.977074 0.424087
vt 0.979802 0.657943
vt 0.854721 0.397693
vt 0.999681 0.640006
vt 0.854721 0.377815
vt 0.573289 0.925418
vt 0.999681 0.491700
vt 0.680006 0.931933
vt 0.854721 0.298635
vt 0.977074 0.351422
vt 0.977073 0.318514
vt 0.002824 0.544199
vt 0.854721 0.371300
vt 0.022703 0.526263
vt 0.854721 0.351422
vt 0.833874 0.942600
vt 0.030302 0.501812
vt 0.810299 0.949115
vt 0.849509 0.770189
vt 0.971862 0.796582
vt 0.971862 0.790067
vt 0.964167 0.682394
vt 0.849509 0.816460
vt 0.984046 0.664458
vt 0.849509 0.796582
vt 0.588924 0.900967
vt 0.973622 0.491700
vt 0.841569 0.900212
vt 0.854721 0.430601
vt 0.971862 0.717402
vt 0.977074 0.450480
vt 0.000000 0.683434
vt 0.849509 0.737281
vt 0.019879 0.665498
vt 0.849509 0.717402
vt 0.818239 0.967051
vt 0.990442 0.002792
vt 0.002792 0.859671
vt 0.000000 0.590867
vt 0.000000 0.597381
vt 0.920258 0.477360
vt 0.004820 0.851292
vt 0.920258 0.710888
vt 0.835697 0.718175
vt 0.079742 0.710888
vt 0.512582 0.970170
vt 0.016204 0.441548
vt 0.834693 0.446032
vt 0.009722 0.381892
vt 0.831452 0.385847
vt 0.016204 0.351233
vt 0.837934 0.354347
vn 0.000000 0.693610 0.720351
vn 0.000000 0.693610 0.720351
vn 0.000000 0.693610 0.720351
vn 0.000000 0.693610 0.720351
vn 0.000000 1.000000 0.000000
vn 0.000000 1.000000 0.000000
vn 0.000000 1.000000 0.000000
vn 0.000000 1.000000 0.000000
vn 0.000000 0.693610 -0.720351
vn 0.000000 0.693610 -0.720351
vn 0.000000 0.693610 -0.720351
vn 0.000000 0.693610 -0.720351
vn 0.000000 -1.000000 0.000000
vn 0.000000 -1.000000 0.000000
vn 0.000000 -1.000000 0.000000
vn 0.000000 -1.000000 0.000000
vn 0.576633 0.817003 0.000000
vn 0.576633 0.817003 0.000000
vn 0.576633 0.817003 0.000000
vn 0.576633 0.817003 0.000000
vn -0.576633 0.817003 0.000000
vn -0.576633 0.817003 0.000000
vn -0.576633 0.817003 0.000000
vn -0.576633 0.817003 0.000000
vn 0.000000 0.000000 1.000000
vn 0.000000 0.000000 1.000000
vn 0.000000 0.000000 1.000000
vn 0.000000 0.000000 1.000000
vn 0.000000 1.000000 0.000000
vn 0.000000 1.000000 0.000000
vn 0.000000 1.000000 0.000000
vn 0.000000 1.000000 0.000000
vn 0.000000 0.000000 -1.000000
vn 0.000000 0.000000 -1.000000
vn 0.000000 0.000000 -1.000000
vn 0.000000 0.000000 -1.000000
vn 0.000000 -1.000000 0.000000
vn 0.000000 -1.000000 0.000000
vn 0.000000 -1.000000 0.000000
vn 0.000000 -1.000000 0.000000
vn 1.000000 0.000000 0.000000
vn 1.000000 0.000000 0.000000
vn 1.000000 0.000000 0.000000
vn 1.000000 0.000000 0.000000
vn -1.000000 0.000000 0.000000
vn -1.000000 0.000000 0.000000
vn -1.000000 0.000000 0.000000
vn -1.000000 0.000000 0.000000
vn 0.000000 0.000000 1.000000
vn 0.000000 0.000000 1.000000
vn 0.000000 0.000000 1.000000
vn 0.000000 0.000000 1.000000
vn 0.000000 1.000000 0.000000
vn 0.000000 1.000000 0.000000
vn 0.000000 1.000000 0.000000
vn 0.000000 1.000000 0.000000
vn 0.000000 0.000000 -1.000000
vn 0.000000 0.000000 -1.000000
vn 0.000000 0.000000 -1.000000
vn 0.000000 0.000000 -1.000000
vn 0.000000 -1.000000 0.000000
vn 0.000000 -1.000000 0.000000
vn 0.000000 -1.000000 0.000000
vn 0.000000 -1.000000 0.000000
vn 1.000000 0.000000 0.000000
vn 1.000000 0.000000 0.000000
vn 1.000000 0.000000 0.000000
vn 1.000000 0.000000 0.000000
vn -1.000000 0.000000 0.000000
vn -1.000000 0.000000 0.000000
vn -1.000000 0.000000 0.000000
vn -1.000000 0.000000 0.000000
vn 0.000000 0.000000 1.000000
vn 0.000000 0.000000 1.000000
vn 0.000000 0.000000 1.000000
vn 0.000000 0.000000 1.000000
vn 0.000000 1.000000 0.000000
vn 0.000000 1.000000 0.000000
vn 0.000000 1.000000 0.000000
vn 0.000000 1.000000 0.000000
vn 0.000000 0.000000 -1.000000
vn 0.000000 0.000000 -1.000000
vn 0.000000 0.000000 -1.000000
vn 0.000000 0.000000 -1.000000
vn 0.000000 -1.000000 0.000000
vn 0.000000 -1.000000 0.000000
vn 0.000000 -1.000000 0.000000
vn 0.000000 -1.000000 0.000000
vn 1.000000 0.000000 0.000000
vn 1.000000 0.000000 0.000000
vn 1.000000 0.000000 0.000000
vn 1.000000 0.000000 0.000000
vn -1.000000 0.000000 0.000000
vn -1.000000 0.000000 0.000000
vn -1.000000 0.000000 0.000000
vn -1.000000 0.000000 0.000000
vn 0.000000 0.000000 1.000000
vn 0.000000 0.000000 1.000000
vn 0.000000 0.000000 1.000000
vn 0.000000 0.000000 1.000000
vn 0.000000 1.000000 0.000000
vn 0.000000 1.000000 0.000000
vn 0.000000 1.000000 0.000000
vn 0.000000 1.000000 0.000000
vn 0.000000 0.000000 -1.000000
vn 0.000000 0.000000 -1.000000
vn 0.000000 0.000000 -1.000000
vn 0.000000 0.000000 -1.000000
vn 0.000000 -1.000000 0.000000
vn 0.000000 -1.000000 0.000000
vn 0.000000 -1.000000 0.000000
vn 0.000000 -1.000000 0.000000
vn 1.000000 0.000000 0.000000
vn 1.000000 0.000000 0.000000
vn 1.000000 0.000000 0.000000
vn 1.000000 0.000000 0.000000
vn -1.000000 0.000000 0.000000
vn -1.000000 0.000000 0.000000
vn -1.000000 0.000000 0.000000
vn -1.000000 0.000000 0.000000
vn 0.000000 0.000000 1.000000
vn 0.000000 0.000000 1.000000
vn 0.000000 0.000000 1.000000
vn 0.000000 0.000000 1.000000
vn 0.000000 1.000000 0.000000
vn 0.000000 1.000000 0.000000
vn 0.000000 1.000000 0.000000
vn 0.000000 1.000000 0.000000
vn 0.000000 0.000000 -1.000000
vn 0.000000 0.000000 -1.000000
vn 0.000000 0.000000 -1.000000
vn 0.000000 0.000000 -1.000000
vn 0.000000 -1.000000 0.000000
vn 0.000000 -1.000000 0.000000
vn 0.000000 -1.000000 0.000000
vn 0.000000 -1.000000 0.000000
vn 1.000000 0.000000 0.000000
vn 1.000000 0.000000 0.000000
vn 1.000000 0.000000 0.000000
vn 1.000000 0.000000 0.000000
vn -1.000000 0.000000 0.000000
vn -1.000000 0.000000 0.000000
vn -1.000000 0.000000 0.000000
vn -1.000000 0.000000 0.000000
vn 0.000000 0.000000 1.000000
vn 0.000000 0.000000 1.000000
vn 0.000000 0.000000 1.000000
vn 0.000000 0.000000 1.000000
vn 0.000000 1.000000 0.000000
vn 0.000000 1.000000 0.000000
vn 0.000000 1.000000 0.000000
vn 0.000000 1.000000 0.000000
vn 0.000000 0.000000 -1.000000
vn 0.000000 0.000000 -1.000000
vn 0.000000 0.000000 -1.000000
vn 0.000000 0.000000 -1.000000
vn 0.000000 -1.000000 0.000000
vn 0.000000 -1.000000 0.000000
vn 0.000000 -1.000000 0.000000
vn 0.000000 -1.000000 0.000000
vn 1.000000 0.000000 0.000000
vn 1.000000 0.000000 0.000000
vn 1.000000 0.000000 0.000000
vn 1.000000 0.000000 0.000000
vn -1.000000 0.000000 0.000000
vn -1.000000 0.000000 0.000000
vn -1.000000 0.000000 0.000000
vn -1.000000 0.000000 0.000000
vn 0.000000 0.000000 1.000000
vn 0.000000 0.000000 1.000000
vn 0.000000 0.000000 1.000000
vn 0.000000 0.000000 1.000000
vn 0.000000 1.000000 0.000000
vn 0.000000 1.000000 0.000000
vn 0.000000 1.000000 0.000000
vn 0.000000 1.000000 0.000000
vn 0.000000 0.000000 -1.000000
vn 0.000000 0.000000 -1.000000
vn 0.000000 0.000000 -1.000000
vn 0.000000 0.000000 -1.000000
vn 0.000000 -1.000000 0.000000
vn 0.000000 -1.000000 0.000000
vn 0.000000 -1.000000 0.000000
vn 0.000000 -1.000000 0.000000
vn 1.000000 0.000000 0.000000
vn 1.000000 0.000000 0.000000
vn 1.000000 0.000000 0.000000
vn 1.000000 0.000000 0.000000
vn -1.000000 0.000000 0.000000
vn -1.000000 0.000000 0.000000
vn -1.000000 0.000000 0.000000
vn -1.000000 0.000000 0.000000
s off
g GrindRailStraight
usemtl GrindRailStraight_Mat
f 1/180/1 2/2/2 4/183/3 3/185/4
f 3/3/5 4/184/6 6/6/7 5/182/8
f 5/5/9 6/181/10 8/8/11 7/179/12
f 7/7/13 8/177/14 2/10/15 1/9/16
f 2/178/17 8/11/18 6/12/19 4/4/20
f 7/13/21 1/1/22 3/186/23 5/14/24
f 9/170/25 10/16/26 12/173/27 11/175/28
f 11/18/29 12/174/30 14/19/31 13/172/32
f 13/20/33 14/171/34 16/21/35 15/169/36
f 15/22/37 16/167/38 10/23/39 9/24/40
f 10/168/41 16/25/42 14/26/43 12/17/44
f 15/27/45 9/15/46 11/176/47 13/28/48
f 17/160/49 18/30/50 20/163/51 19/165/52
f 19/32/53 20/164/54 22/33/55 21/162/56
f 21/34/57 22/161/58 24/35/59 23/159/60
f 23/36/61 24/157/62 18/37/63 17/38/64
f 18/158/65 24/39/66 22/40/67 20/31/68
f 23/41/69 17/29/70 19/166/71 21/42/72
f 25/150/73 26/44/74 28/153/75 27/155/76
f 27/46/77 28/154/78 30/47/79 29/152/80
f 29/48/81 30/151/82 32/49/83 31/149/84
f 31/50/85 32/147/86 26/51/87 25/52/88
f 26/148/89 32/53/90 30/54/91 28/45/92
f 31/55/93 25/43/94 27/156/95 29/56/96
f 33/140/97 34/58/98 36/143/99 35/145/100
f 35/60/101 36/144/102 38/61/103 37/142/104
f 37/62/105 38/141/106 40/63/107 39/139/108
f 39/64/109 40/137/110 34/65/111 33/66/112
f 34/138/113 40/67/114 38/68/115 36/59/116
f 39/69/117 33/57/118 35/146/119 37/70/120
f 41/130/121 42/72/122 44/133/123 43/135/124
f 43/74/125 44/134/126 46/75/127 45/132/128
f 45/76/129 46/131/130 48/77/131 47/129/132
f 47/78/133 48/127/134 42/79/135 41/80/136
f 42/128/137 48/81/138 46/82/139 44/73/140
f 47/83/141 41/71/142 43/136/143 45/84/144
f 49/120/145 50/86/146 52/123/147 51/125/148
f 51/88/149 52/124/150 54/89/151 53/122/152
f 53/90/153 54/121/154 56/91/155 55/119/156
f 55/92/157 56/117/158 50/93/159 49/94/160
f 50/118/161 56/95/162 54/96/163 52/87/164
f 55/97/165 49/85/166 51/126/167 53/98/168
f 57/107/169 58/192/170 60/115/171 59/189/172
f 59/102/173 60/190/174 62/103/175 61/187/176
f 61/104/177 62/188/178 64/105/179 63/114/180
f 63/106/181 64/112/182 58/100/183 57/191/184
f 58/113/185 64/108/186 62/109/187 60/101/188
f 63/110/189 57/99/190 59/116/191 61/111/192
