# This file uses centimeters as units for non-parametric coordinates.

mtllib RampCurved2_Reverse.mtl
g default
v 25.520054 -0.000001 12.067123
v 1.385810 -0.000001 12.067123
v 25.520054 -0.000001 -12.067122
v 1.385810 -0.000001 -12.067122
v 9.688287 8.589044 -12.067122
v 1.385810 24.134243 -12.067122
v 9.688287 8.589044 12.067122
v 1.385810 24.134243 12.067123
v 4.444778 15.606144 12.067122
v 4.444778 15.606144 -12.067122
v 16.744909 3.348845 -12.067122
v 16.744909 3.348845 12.067122
v -0.000001 24.134243 12.067123
v -0.000001 -0.000001 12.067123
v -0.000001 24.134243 -12.067122
v -0.000001 -0.000001 -12.067122
vt 0.001985 0.108095
vt 0.359197 0.329943
vt 0.689157 -0.000017
vt 0.359197 -0.000017
vt 0.331946 0.360458
vt 0.331945 0.603418
vt 0.001985 0.360458
vt 0.001985 0.603417
vt 0.334016 0.995762
vt 0.292194 0.879167
vt 0.794305 0.329944
vt 0.794305 -0.000017
vt 0.001985 0.479549
vt 0.331946 0.479549
vt 0.331946 0.236507
vt 0.334016 0.665801
vt 0.001985 0.236507
vt 0.004056 0.665801
vt 0.977383 0.332260
vt 0.813252 0.329944
vt 0.813252 -0.000017
vt 0.340250 -0.000017
vt 0.124028 0.711586
vt 0.228231 0.778712
vt 0.386697 0.997167
vt 0.386697 0.667207
vt 0.428519 0.880572
vt 0.716658 0.667207
vt 0.596685 0.712992
vt 0.492483 0.780117
vt 0.367751 0.997167
vt 0.367751 0.667207
vt 0.352963 0.665801
vt 0.352963 0.995762
vt 0.689157 0.329943
vt 0.331946 0.108095
vt 0.340250 0.329943
vt 0.647423 0.332260
vt 0.647423 0.662221
vt 0.977383 0.662221
vn 0.000000 -1.000000 0.000000
vn 0.000000 -1.000000 0.000000
vn 0.000000 -1.000000 0.000000
vn 0.000000 -1.000000 0.000000
vn 0.000000 0.000000 -1.000000
vn 0.000000 0.000000 -1.000000
vn 0.000000 0.000000 -1.000000
vn 0.000000 0.000000 -1.000000
vn 0.000000 0.000000 -1.000000
vn 0.000000 0.000000 -1.000000
vn 0.882077 0.471105 0.000000
vn 0.882077 0.471105 0.000000
vn 0.941279 0.337630 0.000000
vn 0.941279 0.337630 0.000000
vn 0.000000 0.000000 1.000000
vn 0.000000 0.000000 1.000000
vn 0.000000 0.000000 1.000000
vn -0.000000 0.000000 1.000000
vn -0.000000 0.000000 1.000000
vn 0.000000 0.000000 1.000000
vn -1.000000 0.000000 -0.000000
vn -1.000000 0.000000 -0.000000
vn -1.000000 0.000000 -0.000000
vn -1.000000 0.000000 -0.000000
vn 0.476863 0.878978 0.000000
vn 0.476863 0.878978 0.000000
vn 0.356547 0.934277 0.000000
vn 0.356547 0.934277 0.000000
vn 0.705872 0.708339 0.000000
vn 0.705872 0.708339 0.000000
vn -0.000000 0.000000 1.000000
vn -0.000000 0.000000 1.000000
vn -0.000000 0.000000 1.000000
vn -0.000000 0.000000 1.000000
vn 0.000000 1.000000 -0.000000
vn 0.000000 1.000000 -0.000000
vn 0.000000 1.000000 -0.000000
vn 0.000000 1.000000 -0.000000
vn 0.000000 0.000000 -1.000000
vn 0.000000 0.000000 -1.000000
vn 0.000000 0.000000 -1.000000
vn 0.000000 0.000000 -1.000000
vn 0.000000 -1.000000 0.000000
vn 0.000000 -1.000000 0.000000
vn 0.000000 -1.000000 0.000000
vn 0.000000 -1.000000 0.000000
s off
g RampCurved2_Reverse
usemtl RampCurved2_Reverse_Mat
f 1/35/1 2/2/2 4/4/3 3/3/4
s 1
f 6/9/5 10/10/6 4/16/7
f 3/18/8 4/16/7 11/23/9
f 10/10/6 5/24/10 4/16/7
f 4/16/7 5/24/10 11/23/9
s 3
f 9/13/11 10/14/12 6/6/13 8/8/14
s 4
f 8/25/15 2/26/16 9/27/17
f 1/28/18 12/29/19 2/26/16
f 9/27/17 2/26/16 7/30/20
f 7/30/20 2/26/16 12/29/19
s off
f 14/19/21 13/40/22 15/39/23 16/38/24
s 3
f 11/15/25 12/17/26 1/1/27 3/36/28
f 5/5/29 10/14/12 9/13/11 7/7/30
f 7/7/30 12/17/26 11/15/25 5/5/29
s off
f 2/26/31 8/25/32 13/31/33 14/32/34
f 8/11/35 6/12/36 15/21/37 13/20/38
f 6/9/39 4/16/40 16/33/41 15/34/42
f 4/4/43 2/2/44 14/37/45 16/22/46
