# This file uses centimeters as units for non-parametric coordinates.

mtllib RampCurvedShort.mtl
g default
v -16.475783 -0.000000 -12.067123
v 7.658461 -0.000000 -12.067123
v -16.475783 -0.000000 12.067121
v 7.658461 -0.000000 12.067121
v -0.078969 4.279257 12.067123
v 7.658461 12.505350 12.067121
v -0.078969 4.279257 -12.067121
v 7.658461 12.505350 -12.067123
v 4.599494 8.086448 -12.067122
v 4.599494 8.086448 12.067122
v -7.700638 1.735231 12.067122
v -7.700637 1.735231 -12.067122
v 10.122853 12.505350 -12.067123
v 10.122853 -0.000000 -12.067123
v 10.122853 12.505350 12.067121
v 10.122853 -0.000000 12.067121
vt 0.375000 0.000000
vt 0.625000 0.000000
vt 0.375000 0.250000
vt 0.625000 0.250000
vt 0.375000 0.500000
vt 0.625000 0.500000
vt 0.375000 0.750000
vt 0.625000 0.750000
vt 0.375000 1.000000
vt 0.625000 1.000000
vt 0.875000 0.000000
vt 0.875000 0.250000
vt 0.125000 0.000000
vt 0.125000 0.250000
vt 0.500000 0.750000
vt 0.500000 0.500000
vt 0.243329 0.250000
vt 0.375000 0.381671
vt 0.243329 0.000000
vt 0.375000 0.868329
vt 0.625000 0.000000
vt 0.875000 0.000000
vt 0.875000 0.250000
vt 0.625000 0.250000
vn 0.000000 -1.000000 0.000000
vn 0.000000 -1.000000 0.000000
vn 0.000000 -1.000000 0.000000
vn 0.000000 -1.000000 0.000000
vn 0.000001 0.000000 1.000000
vn 0.000000 -0.000000 1.000000
vn -0.000000 -0.000000 1.000000
vn 0.000000 -0.000000 1.000000
vn -0.000000 -0.000000 1.000000
vn -0.000000 -0.000000 1.000000
vn -0.728411 0.685140 0.000000
vn -0.728411 0.685140 0.000000
vn -0.822216 0.569176 0.000000
vn -0.822216 0.569176 0.000000
vn -0.000000 0.000000 -1.000000
vn -0.000000 0.000000 -1.000000
vn -0.000000 0.000000 -1.000000
vn 0.000000 0.000000 -1.000000
vn 0.000000 0.000000 -1.000000
vn -0.000000 0.000000 -1.000000
vn 1.000000 0.000000 0.000000
vn 1.000000 0.000000 0.000000
vn 1.000000 0.000000 0.000000
vn 1.000000 0.000000 0.000000
vn -0.252523 0.967591 -0.000000
vn -0.252523 0.967591 -0.000000
vn -0.193988 0.981004 -0.000000
vn -0.193988 0.981004 -0.000000
vn -0.458801 0.888539 -0.000000
vn -0.458801 0.888539 -0.000000
vn 0.000000 0.000000 -1.000000
vn 0.000000 0.000000 -1.000000
vn 0.000000 0.000000 -1.000000
vn 0.000000 0.000000 -1.000000
vn 0.000000 1.000000 0.000000
vn 0.000000 1.000000 0.000000
vn 0.000000 1.000000 0.000000
vn 0.000000 1.000000 0.000000
vn 0.000000 0.000000 1.000000
vn 0.000000 0.000000 1.000000
vn 0.000000 0.000000 1.000000
vn 0.000000 0.000000 1.000000
vn 0.000000 -1.000000 0.000000
vn 0.000000 -1.000000 0.000000
vn 0.000000 -1.000000 0.000000
vn 0.000000 -1.000000 0.000000
s off
g RampCurvedShort
usemtl initialShadingGroup
f 1/1/1 2/2/2 4/4/3 3/3/4
s 1
f 6/6/5 10/16/6 4/4/7
f 3/3/8 4/4/7 11/18/9
f 10/16/6 5/5/10 4/4/7
f 4/4/7 5/5/10 11/18/9
s 3
f 9/15/11 10/16/12 6/6/13 8/8/14
s 4
f 8/8/15 2/10/16 9/15/17
f 1/9/18 12/20/19 2/10/16
f 9/15/17 2/10/16 7/7/20
f 7/7/20 2/10/16 12/20/19
s off
f 14/21/21 13/22/22 15/23/23 16/24/24
s 3
f 11/17/25 12/19/26 1/1/27 3/3/28
f 5/5/29 10/16/12 9/15/11 7/7/30
f 7/13/30 12/19/26 11/17/25 5/14/29
s off
f 2/2/31 8/11/32 13/22/33 14/21/34
f 8/11/35 6/12/36 15/23/37 13/22/38
f 6/12/39 4/4/40 16/24/41 15/23/42
f 4/4/43 2/2/44 14/21/45 16/24/46
