# This file uses centimeters as units for non-parametric coordinates.

mtllib RampSbend_sm.mtl
g default
v -29.479714 -0.000001 -12.067122
v -1.385807 -0.000001 -12.067122
v -29.479714 -0.000001 12.067122
v -1.385807 -0.000001 12.067122
v -14.608935 3.716569 12.067122
v -1.385807 8.598626 12.067122
v -14.608935 3.716569 -12.067118
v -1.385807 8.598626 -12.067122
v -10.005377 6.615843 -12.067122
v -10.005377 6.615843 12.067122
v -21.620195 1.480869 12.067122
v -21.620195 1.480869 -12.067122
v -0.000014 8.598626 -12.067122
v -0.000014 -0.000001 -12.067122
v -0.000014 8.598626 12.067122
v -0.000014 -0.000001 12.067122
v -5.131116 8.248718 -12.067122
v -5.131116 8.248718 12.067122
vt 0.669158 0.000009
vt 0.330842 0.889941
vt 0.000000 0.504818
vt 0.000000 0.889941
vt 1.000000 0.250875
vt 1.000000 0.523836
vt 0.669158 0.250875
vt 0.669158 0.523836
vt 0.604991 0.533858
vt 0.524725 0.525677
vt 0.669158 0.379042
vt 1.000000 0.379042
vt 1.000000 0.121889
vt 0.606544 0.349436
vt 0.669158 0.121889
vt 0.420478 0.489775
vt 1.000000 0.548642
vt 0.669158 0.542833
vt 1.000000 0.542833
vt 0.000000 0.908938
vt 0.003991 0.344363
vt 0.172293 0.377544
vt 0.045874 0.268684
vt 0.041853 0.080309
vt 0.127761 0.259267
vt 0.233781 0.221215
vt 0.657323 0.067171
vt 0.485832 0.103288
vt 0.333278 0.155546
vt 0.015515 0.269332
vt 0.322265 0.426761
vt 0.636266 0.349687
vt 0.330842 0.504818
vt 1.000000 0.000009
vt 0.011493 0.080957
vt 0.669158 0.470758
vt 1.000000 0.470758
vt 0.634714 0.534109
vt 0.330842 0.908938
vt 0.669158 0.548642
vt 0.669158 0.879484
vt 1.000000 0.879484
vn 0.000000 -1.000000 0.000000
vn 0.000000 -1.000000 0.000000
vn 0.000000 -1.000000 0.000000
vn 0.000000 -1.000000 0.000000
vn -0.000000 0.000000 1.000000
vn 0.000000 0.000000 1.000000
vn 0.000000 0.000000 1.000000
vn 0.000000 0.000000 1.000000
vn 0.000000 0.000000 1.000000
vn 0.000000 0.000000 1.000000
vn 0.000000 0.000000 1.000000
vn -0.224178 0.974548 0.000000
vn -0.224178 0.974548 0.000000
vn -0.068036 0.997683 0.000000
vn -0.068036 0.997683 0.000000
vn -0.000000 0.000000 -1.000000
vn -0.000000 0.000000 -1.000000
vn 0.000000 0.000000 -1.000000
vn -0.000000 -0.000000 -1.000000
vn 0.000000 0.000000 -1.000000
vn 0.000000 0.000000 -1.000000
vn -0.000000 0.000001 -1.000000
vn 1.000000 0.000000 0.000000
vn 1.000000 0.000000 0.000000
vn 1.000000 0.000000 0.000000
vn 1.000000 0.000000 0.000000
vn -0.242467 0.970160 0.000000
vn -0.242467 0.970160 0.000000
vn -0.185159 0.982709 0.000000
vn -0.185159 0.982709 0.000000
vn -0.404351 0.914604 0.000000
vn -0.431400 0.902161 0.000000
vn -0.431400 0.902161 0.000000
vn -0.404351 0.914604 0.000000
vn 0.000000 0.000000 -1.000000
vn 0.000000 0.000000 -1.000000
vn 0.000000 0.000000 -1.000000
vn 0.000000 0.000000 -1.000000
vn 0.000000 1.000000 0.000000
vn 0.000000 1.000000 0.000000
vn 0.000000 0.000000 1.000000
vn 0.000000 0.000000 1.000000
vn 0.000000 0.000000 1.000000
vn 0.000000 0.000000 1.000000
vn 0.000000 -1.000000 0.000000
vn 0.000000 -1.000000 0.000000
vn 0.000000 -1.000000 0.000000
vn 0.000000 -1.000000 0.000000
s off
g RampSbend_sm
usemtl RampSbendSm_Mat
f 1/33/1 2/2/2 4/4/3 3/3/4
s 1
f 6/9/5 18/10/6 4/14/7
f 18/10/6 10/16/8 4/14/7
f 3/21/9 4/14/7 11/22/10
f 10/16/8 5/31/11 4/14/7
f 4/14/7 5/31/11 11/22/10
s 3
f 17/36/12 18/37/13 6/6/14 8/8/15
s 4
f 8/23/16 2/24/17 17/25/18
f 2/24/17 9/26/19 17/25/18
f 1/27/20 12/28/21 2/24/17
f 9/26/19 2/24/17 7/29/22
f 7/29/22 2/24/17 12/28/21
s off
f 14/17/23 13/42/24 15/41/25 16/40/26
s 3
f 11/13/27 12/15/28 1/1/29 3/34/30
f 5/5/31 10/12/32 9/11/33 7/7/34
f 7/7/34 12/15/28 11/13/27 5/5/31
s off
f 2/24/35 8/23/36 13/30/37 14/35/38
s 3
f 8/8/15 6/6/14 15/19/39 13/18/40
s off
f 6/9/41 4/14/42 16/32/43 15/38/44
f 4/4/45 2/2/46 14/39/47 16/20/48
s 3
f 9/11/33 10/12/32 18/37/13 17/36/12
