# This file uses centimeters as units for non-parametric coordinates.

mtllib RampSbend2_Reverse.mtl
g default
v 29.479704 -0.000001 12.067123
v 1.385807 -0.000001 12.067123
v 29.479704 -0.000001 -12.067122
v 1.385807 -0.000001 -12.067122
v 14.608923 10.431498 -12.067123
v 1.385807 24.134243 -12.067122
v 14.608923 10.431498 12.067121
v 1.385807 24.134243 12.067123
v 10.005367 18.569050 12.067122
v 10.005367 18.569050 -12.067122
v 21.620184 4.156436 -12.067122
v 21.620184 4.156436 12.067122
v -0.000004 24.134243 12.067123
v -0.000004 -0.000001 12.067123
v -0.000004 24.134243 -12.067122
v -0.000004 -0.000001 -12.067122
v 5.131103 23.152132 12.067122
v 5.131103 23.152132 -12.067122
vt 0.000000 0.000000
vt 0.315781 0.321862
vt 0.626775 0.683880
vt 0.626775 0.321862
vt 0.310994 0.235816
vt 0.310994 0.492401
vt 0.000000 0.235816
vt 0.000000 0.492401
vt 0.677799 0.310994
vt 0.566727 0.239281
vt 0.000000 0.356293
vt 0.310994 0.356293
vt 0.310994 0.114568
vt 0.677799 0.000000
vt 0.000000 0.114568
vt 0.315781 0.000000
vt 0.999970 0.316120
vt 0.000000 0.510258
vt 0.310994 0.510258
vt 0.626775 0.304004
vt 0.417059 0.053560
vt 0.507406 0.134420
vt 0.017858 1.000000
vt 0.017858 0.689006
vt 0.128929 0.928287
vt 0.379876 0.689006
vt 0.278598 0.742566
vt 0.188251 0.823426
vt 0.000000 1.000000
vt 0.000000 0.689006
vt 0.695656 0.000000
vt 0.695656 0.310994
vt 0.315781 0.683880
vt 0.310994 0.000000
vt 0.066119 0.987345
vt 0.000000 0.442507
vt 0.310994 0.442507
vt 0.629537 0.298338
vt 0.315781 0.304004
vt 0.688976 0.316120
vt 0.688976 0.627114
vt 0.999970 0.627114
vn 0.000000 -1.000000 0.000000
vn 0.000000 -1.000000 0.000000
vn 0.000000 -1.000000 0.000000
vn 0.000000 -1.000000 0.000000
vn 0.000000 0.000000 -1.000000
vn 0.000000 0.000000 -1.000000
vn 0.000000 -0.000000 -1.000000
vn 0.000000 0.000000 -1.000000
vn 0.000000 0.000000 -1.000000
vn -0.000000 -0.000000 -1.000000
vn 0.000000 -0.000000 -1.000000
vn 0.542415 0.840111 0.000000
vn 0.542415 0.840111 0.000000
vn 0.187991 0.982171 0.000000
vn 0.187991 0.982171 0.000000
vn 0.000000 0.000000 1.000000
vn 0.000000 0.000000 1.000000
vn 0.000000 0.000000 1.000000
vn 0.000000 0.000000 1.000000
vn -0.000000 0.000000 1.000000
vn -0.000000 0.000000 1.000000
vn 0.000000 0.000000 1.000000
vn -1.000000 0.000000 -0.000000
vn -1.000000 0.000000 -0.000000
vn -1.000000 0.000000 -0.000000
vn -1.000000 0.000000 -0.000000
vn 0.574273 0.818664 0.000000
vn 0.574273 0.818664 0.000000
vn 0.467494 0.883996 0.000000
vn 0.467494 0.883996 0.000000
vn 0.778631 0.627482 0.000000
vn 0.801892 0.597469 0.000000
vn 0.801892 0.597469 0.000000
vn 0.778631 0.627482 0.000000
vn -0.000000 0.000000 1.000000
vn -0.000000 0.000000 1.000000
vn -0.000000 0.000000 1.000000
vn -0.000000 0.000000 1.000000
vn 0.000000 1.000000 -0.000000
vn 0.000000 1.000000 -0.000000
vn 0.000000 0.000000 -1.000000
vn 0.000000 0.000000 -1.000000
vn 0.000000 0.000000 -1.000000
vn 0.000000 0.000000 -1.000000
vn 0.000000 -1.000000 0.000000
vn 0.000000 -1.000000 0.000000
vn 0.000000 -1.000000 0.000000
vn 0.000000 -1.000000 0.000000
s off
g RampSbend2_Reverse
usemtl RampSbend2_Reverse_Mat
f 1/33/1 2/2/2 4/4/3 3/3/4
s 1
f 6/9/5 18/38/6 4/14/7
f 18/38/6 10/10/8 4/14/7
f 3/16/9 4/14/7 11/21/10
f 10/10/8 5/22/11 4/14/7
f 4/14/7 5/22/11 11/21/10
s 3
f 17/36/12 18/37/13 6/6/14 8/8/15
s 4
f 8/23/16 2/24/17 17/35/18
f 2/24/17 9/25/19 17/35/18
f 1/26/20 12/27/21 2/24/17
f 9/25/19 2/24/17 7/28/22
f 7/28/22 2/24/17 12/27/21
s off
f 14/17/23 13/42/24 15/41/25 16/40/26
s 3
f 11/13/27 12/15/28 1/1/29 3/34/30
f 5/5/31 10/12/32 9/11/33 7/7/34
f 7/7/34 12/15/28 11/13/27 5/5/31
s off
f 2/24/35 8/23/36 13/29/37 14/30/38
s 3
f 8/8/15 6/6/14 15/19/39 13/18/40
s off
f 6/9/41 4/14/42 16/31/43 15/32/44
f 4/4/45 2/2/46 14/39/47 16/20/48
s 3
f 9/11/33 10/12/32 18/37/13 17/36/12
