# This file uses centimeters as units for non-parametric coordinates.

mtllib RampBump.mtl
g default
v -18.102264 -0.000000 17.824669
v 18.102264 -0.000000 17.824669
v -7.760863 7.548122 7.641852
v 7.760863 7.548122 7.641852
v -7.760863 7.548122 -7.641852
v 7.760863 7.548122 -7.641852
v -18.102264 -0.000000 -17.824669
v 18.102264 -0.000000 -17.824669
vt 0.966992 0.013817
vt 0.900868 0.618905
vt 0.709802 0.421045
vt 0.156243 0.911216
vt 0.341461 0.697671
vt 0.508562 0.219805
vt 0.483423 0.483423
vt 0.032422 0.516584
vt 0.483423 0.014029
vt 0.014029 0.014029
vt 0.464444 0.730619
vt 0.341210 0.911216
vt 0.535556 0.013817
vt 0.658790 0.194414
vt 0.033008 0.730619
vt 0.777298 0.799992
vt 0.508562 0.421045
vt 0.468260 0.618905
vt 0.591829 0.799992
vt 0.843757 0.194414
vt 0.465030 0.516584
vt 0.014029 0.483423
vt 0.709802 0.219805
vt 0.155992 0.697671
vn 0.000000 0.803357 0.595497
vn 0.000000 0.803357 0.595497
vn 0.000000 0.803357 0.595497
vn 0.000000 0.803357 0.595497
vn 0.000000 1.000000 0.000000
vn 0.000000 1.000000 0.000000
vn 0.000000 1.000000 0.000000
vn 0.000000 1.000000 0.000000
vn 0.000000 0.803357 -0.595497
vn 0.000000 0.803357 -0.595497
vn 0.000000 0.803357 -0.595497
vn 0.000000 0.803357 -0.595497
vn 0.000000 -1.000000 0.000000
vn 0.000000 -1.000000 0.000000
vn 0.000000 -1.000000 0.000000
vn 0.000000 -1.000000 0.000000
vn 0.589556 0.807728 0.000000
vn 0.589556 0.807728 0.000000
vn 0.589556 0.807728 0.000000
vn 0.589556 0.807728 0.000000
vn -0.589556 0.807728 0.000000
vn -0.589556 0.807728 0.000000
vn -0.589556 0.807728 0.000000
vn -0.589556 0.807728 0.000000
s off
g RampBump
usemtl RampBump_Mat
f 1/18/1 2/2/2 4/16/3 3/19/4
f 3/3/5 4/17/6 6/6/7 5/23/8
f 5/5/9 6/24/10 8/8/11 7/21/12
f 7/7/13 8/22/14 2/10/15 1/9/16
f 2/15/17 8/11/18 6/12/19 4/4/20
f 7/13/21 1/1/22 3/20/23 5/14/24
