# This file uses centimeters as units for non-parametric coordinates.

mtllib RampStraight.mtl
g default
v -16.475783 -0.000000 -12.067123
v 7.658461 -0.000000 -12.067123
v -16.475783 -0.000000 12.067121
v 7.658461 -0.000000 12.067121
v 7.658461 12.505350 12.067121
v 7.658461 12.505350 -12.067123
v 10.122853 12.505350 -12.067123
v 10.122853 -0.000000 -12.067123
v 10.122853 12.505350 12.067121
v 10.122853 -0.000000 12.067121
vt 0.375000 0.000000
vt 0.625000 0.000000
vt 0.375000 0.250000
vt 0.625000 0.250000
vt 0.625000 0.500000
vt 0.625000 0.750000
vt 0.375000 1.000000
vt 0.625000 1.000000
vt 0.875000 0.000000
vt 0.875000 0.250000
vt 0.625000 0.000000
vt 0.875000 0.000000
vt 0.875000 0.250000
vt 0.625000 0.250000
vn 0.000000 -1.000000 0.000000
vn 0.000000 -1.000000 0.000000
vn 0.000000 -1.000000 0.000000
vn 0.000000 -1.000000 0.000000
vn 0.000000 0.000000 1.000000
vn 0.000000 0.000000 1.000000
vn 0.000000 0.000000 1.000000
vn 0.000000 0.000000 -1.000000
vn 0.000000 0.000000 -1.000000
vn 0.000000 0.000000 -1.000000
vn 1.000000 0.000000 0.000000
vn 1.000000 0.000000 0.000000
vn 1.000000 0.000000 0.000000
vn 1.000000 0.000000 0.000000
vn -0.460065 0.887885 0.000000
vn -0.460065 0.887885 0.000000
vn -0.460065 0.887885 0.000000
vn -0.460065 0.887885 0.000000
vn 0.000000 0.000000 -1.000000
vn 0.000000 0.000000 -1.000000
vn 0.000000 0.000000 -1.000000
vn 0.000000 0.000000 -1.000000
vn 0.000000 1.000000 0.000000
vn 0.000000 1.000000 0.000000
vn 0.000000 1.000000 0.000000
vn 0.000000 1.000000 0.000000
vn 0.000000 0.000000 1.000000
vn 0.000000 0.000000 1.000000
vn 0.000000 0.000000 1.000000
vn 0.000000 0.000000 1.000000
vn 0.000000 -1.000000 0.000000
vn 0.000000 -1.000000 0.000000
vn 0.000000 -1.000000 0.000000
vn 0.000000 -1.000000 0.000000
s off
g RampStraight
usemtl initialShadingGroup
f 1/1/1 2/2/2 4/4/3 3/3/4
f 3/3/5 4/4/6 5/5/7
f 6/6/8 2/8/9 1/7/10
f 8/11/11 7/12/12 9/13/13 10/14/14
f 6/6/15 1/1/16 3/3/17 5/5/18
f 2/2/19 6/9/20 7/12/21 8/11/22
f 6/9/23 5/10/24 9/13/25 7/12/26
f 5/10/27 4/4/28 10/14/29 9/13/30
f 4/4/31 2/2/32 8/11/33 10/14/34
