# This file uses centimeters as units for non-parametric coordinates.

mtllib RampStraight.mtl
g default
v -26.598633 -0.000000 -12.067123
v -2.464394 -0.000000 -12.067123
v -26.598633 -0.000000 12.067117
v -2.464394 -0.000000 12.067117
v -2.464394 14.293045 12.067117
v -2.464394 14.293045 -12.067123
v 11.669492 14.293045 -12.067123
v 11.669492 -0.000000 -12.067123
v 11.669492 14.293045 12.067117
v 11.669492 -0.000000 12.067117
vt 0.039065 0.059150
vt 0.609208 0.729800
vt 0.354394 0.059150
vt 0.354394 0.374479
vt 0.048704 0.914519
vt 0.609208 0.524308
vt 0.895774 0.524308
vt 0.441385 0.729800
vt 0.933480 0.032226
vt 0.933480 0.327425
vt 0.661704 0.327425
vt 0.661704 0.032226
vt 0.933480 0.486586
vt 0.661704 0.486586
vt 0.499896 0.774486
vt 0.795253 0.774486
vt 0.795253 0.973861
vt 0.968225 0.774486
vt 0.968225 0.973861
vt 0.048704 0.510256
vt 0.334562 0.510256
vt 0.334562 0.914519
vt 0.039065 0.374479
vt 0.539062 0.059150
vt 0.539062 0.374479
vt 0.441385 0.524308
vt 0.661704 0.304001
vt 0.933480 0.304001
vn 0.000000 -1.000000 0.000000
vn 0.000000 -1.000000 0.000000
vn 0.000000 -1.000000 0.000000
vn 0.000000 -1.000000 0.000000
vn 0.000000 0.000000 1.000000
vn 0.000000 0.000000 1.000000
vn 0.000000 0.000000 1.000000
vn 0.000000 0.000000 -1.000000
vn 0.000000 0.000000 -1.000000
vn 0.000000 0.000000 -1.000000
vn 1.000000 0.000000 0.000000
vn 1.000000 0.000000 0.000000
vn 1.000000 0.000000 0.000000
vn 1.000000 0.000000 0.000000
vn -0.509572 0.860428 0.000000
vn -0.509572 0.860428 0.000000
vn -0.509572 0.860428 0.000000
vn -0.509572 0.860428 0.000000
vn 0.000000 0.000000 -1.000000
vn 0.000000 0.000000 -1.000000
vn 0.000000 0.000000 -1.000000
vn 0.000000 0.000000 -1.000000
vn 0.000000 1.000000 0.000000
vn 0.000000 1.000000 0.000000
vn 0.000000 1.000000 0.000000
vn 0.000000 1.000000 0.000000
vn 0.000000 0.000000 1.000000
vn 0.000000 0.000000 1.000000
vn 0.000000 0.000000 1.000000
vn 0.000000 0.000000 1.000000
vn 0.000000 -1.000000 0.000000
vn 0.000000 -1.000000 0.000000
vn 0.000000 -1.000000 0.000000
vn 0.000000 -1.000000 0.000000
s off
g RampStraight
usemtl RampStraight_Mat
f 1/1/1 2/3/2 4/4/3 3/23/4
f 3/15/5 4/16/6 5/17/7
f 6/2/8 2/6/9 1/7/10
f 8/9/11 7/28/12 9/27/13 10/12/14
f 6/5/15 1/20/16 3/21/17 5/22/18
f 2/6/19 6/2/20 7/8/21 8/26/22
f 6/13/23 5/14/24 9/11/25 7/10/26
f 5/17/27 4/16/28 10/18/29 9/19/30
f 4/4/31 2/3/32 8/24/33 10/25/34
